<svg width="42" height="42" viewBox="0 0 42 42" fill="none" xmlns="http://www.w3.org/2000/svg">
<circle cx="21" cy="21" r="19.5" fill="#E5F3FF" stroke="#6EBAFF" stroke-width="3"/>
<path d="M11.7598 23.5193C11.7598 25.9699 12.7333 28.3201 14.4661 30.053C16.1989 31.7858 18.5492 32.7593 20.9998 32.7593C23.4504 32.7593 25.8006 31.7858 27.5334 30.053C29.2663 28.3201 30.2398 25.9699 30.2398 23.5193L27.4406 23.5193C27.4406 25.2275 26.762 26.8658 25.5541 28.0737C24.3462 29.2816 22.708 29.9602 20.9998 29.9602C19.2915 29.9602 17.6533 29.2816 16.4454 28.0737C15.2375 26.8658 14.5589 25.2275 14.5589 23.5193L11.7598 23.5193Z" fill="#6EBAFF"/>
<circle cx="16.5899" cy="16.1695" r="3.15" fill="#6EBAFF"/>
<circle cx="24.9898" cy="16.1695" r="3.15" fill="#6EBAFF"/>
</svg>
